<?xml version="1.0" encoding="UTF-8"?>
<svg xmlns="http://www.w3.org/2000/svg" xmlns:xlink="http://www.w3.org/1999/xlink" width="3000" height="2250" viewBox="0 0 3000 2250">
<rect x="-300" y="-225" width="3600" height="2700" fill="rgb(100%, 100%, 100%)" fill-opacity="1"/>
<path fill-rule="nonzero" fill="rgb(33.325195%, 79.296875%, 70.117188%)" fill-opacity="1" d="M 817.507812 1428.082031 C 803.800781 1441.789062 787.71875 1451.996094 772.796875 1456.460938 C 757.871094 1460.921875 745.335938 1459.273438 737.9375 1451.878906 C 722.535156 1436.476562 733.191406 1400.851562 761.734375 1372.308594 C 775.441406 1358.601562 791.527344 1348.394531 806.449219 1343.929688 C 821.371094 1339.46875 833.910156 1341.113281 841.304688 1348.511719 C 848.703125 1355.90625 850.347656 1368.445312 845.886719 1383.367188 C 841.425781 1398.289062 831.214844 1414.375 817.507812 1428.082031 "/>
<path fill-rule="nonzero" fill="rgb(33.325195%, 79.296875%, 70.117188%)" fill-opacity="1" d="M 643.5 1428.082031 C 657.207031 1441.789062 673.289062 1451.996094 688.214844 1456.460938 C 703.136719 1460.921875 715.675781 1459.273438 723.070312 1451.878906 C 738.472656 1436.476562 727.816406 1400.851562 699.273438 1372.308594 C 685.566406 1358.601562 669.480469 1348.394531 654.558594 1343.929688 C 639.636719 1339.46875 627.097656 1341.113281 619.703125 1348.511719 C 612.304688 1355.90625 610.65625 1368.445312 615.121094 1383.367188 C 619.585938 1398.289062 629.789062 1414.375 643.5 1428.082031 "/>
<path fill-rule="nonzero" fill="rgb(33.325195%, 79.296875%, 70.117188%)" fill-opacity="1" d="M 817.507812 1485.832031 C 803.800781 1472.125 787.71875 1461.914062 772.796875 1457.453125 C 757.871094 1452.992188 745.335938 1454.640625 737.9375 1462.035156 C 722.535156 1477.4375 733.191406 1513.0625 761.734375 1541.605469 C 775.441406 1555.3125 791.527344 1565.519531 806.449219 1569.984375 C 821.371094 1574.445312 833.910156 1572.800781 841.304688 1565.402344 C 848.703125 1558.007812 850.347656 1545.46875 845.886719 1530.546875 C 841.425781 1515.621094 831.214844 1499.539062 817.507812 1485.832031 "/>
<path fill-rule="nonzero" fill="rgb(33.325195%, 79.296875%, 70.117188%)" fill-opacity="1" d="M 643.5 1485.832031 C 657.207031 1472.125 673.289062 1461.914062 688.214844 1457.453125 C 703.136719 1452.992188 715.675781 1454.640625 723.070312 1462.035156 C 738.472656 1477.4375 727.816406 1513.0625 699.273438 1541.605469 C 685.566406 1555.3125 669.480469 1565.519531 654.558594 1569.984375 C 639.636719 1574.445312 627.097656 1572.800781 619.703125 1565.402344 C 612.304688 1558.007812 610.65625 1545.46875 615.121094 1530.546875 C 619.585938 1515.621094 629.789062 1499.539062 643.5 1485.832031 "/>
<path fill-rule="nonzero" fill="rgb(100%, 73.242188%, 63.476562%)" fill-opacity="1" d="M 1367.941406 951.21875 L 1599.96875 951.21875 L 1633.949219 1061.371094 C 1558.699219 1249.5 1429.101562 1206.019531 1329.269531 1061.371094 L 1367.941406 951.21875 "/>
<path fill-rule="nonzero" fill="rgb(90.234375%, 90.234375%, 90.234375%)" fill-opacity="1" d="M 1329.269531 1061.371094 C 1248.089844 1087.449219 1159.828125 1128.761719 1094.890625 1184.421875 C 1033.558594 1392.425781 1024.140625 1625.6875 1024.578125 1828.953125 L 1481.609375 1831.296875 L 1938.640625 1828.953125 C 1939.078125 1625.6875 1929.648438 1392.425781 1868.328125 1184.421875 C 1803.390625 1128.761719 1715.128906 1087.449219 1633.949219 1061.371094 L 1481.609375 1182.078125 L 1329.269531 1061.371094 "/>
<path fill-rule="nonzero" fill="rgb(56.834412%, 43.530273%, 43.530273%)" fill-opacity="1" d="M 1329.269531 1061.371094 C 1362.148438 1180.441406 1414.730469 1304.136719 1480.101562 1408.722656 C 1531.109375 1369.921875 1662.148438 1102.828125 1633.949219 1061.371094 L 1481.609375 1182.078125 L 1329.269531 1061.371094 "/>
<path fill-rule="nonzero" fill="rgb(28.24707%, 21.556091%, 21.556091%)" fill-opacity="1" d="M 1492.160156 1260.59375 L 1473.410156 1261.765625 C 1475.238281 1295.765625 1463.121094 1326.886719 1450.191406 1357.863281 C 1459.839844 1375.214844 1469.789062 1392.230469 1480.101562 1408.722656 C 1488.621094 1402.242188 1499.398438 1389.28125 1511.28125 1372.167969 C 1507.101562 1334.503906 1499.890625 1297.320312 1492.160156 1260.59375 "/>
<path fill-rule="nonzero" fill="rgb(28.24707%, 21.556091%, 21.556091%)" fill-opacity="1" d="M 1447.53125 1235.21875 L 1481.609375 1182.078125 L 1515.691406 1235.21875 L 1481.609375 1288.363281 L 1447.53125 1235.21875 "/>
<path fill-rule="nonzero" fill="rgb(80.076599%, 80.076599%, 80.076599%)" fill-opacity="1" d="M 1232.078125 1445.515625 C 1230.011719 1445.476562 1228.289062 1447.117188 1228.25 1449.1875 C 1225.941406 1562.003906 1203.230469 1675.460938 1176.800781 1781.167969 C 1176.300781 1783.175781 1177.519531 1785.210938 1179.53125 1785.714844 C 1181.539062 1786.214844 1183.570312 1784.996094 1184.078125 1782.988281 C 1210.558594 1677.039062 1233.421875 1563.0625 1235.75 1449.34375 C 1235.769531 1448.347656 1235.398438 1447.386719 1234.710938 1446.667969 C 1234.019531 1445.949219 1233.070312 1445.535156 1232.078125 1445.515625 "/>
<path fill-rule="nonzero" fill="rgb(80.076599%, 80.076599%, 80.076599%)" fill-opacity="1" d="M 1749.890625 1445.515625 C 1747.820312 1445.5625 1746.179688 1447.273438 1746.21875 1449.34375 C 1748.550781 1563.0625 1771.410156 1677.039062 1797.890625 1782.988281 C 1798.128906 1783.953125 1798.75 1784.78125 1799.601562 1785.292969 C 1800.460938 1785.804688 1801.480469 1785.957031 1802.441406 1785.714844 C 1804.449219 1785.210938 1805.671875 1783.175781 1805.171875 1781.167969 C 1778.738281 1675.460938 1756.03125 1562.003906 1753.71875 1449.1875 C 1753.671875 1447.117188 1751.960938 1445.476562 1749.890625 1445.515625 "/>
<path fill-rule="nonzero" fill="rgb(100%, 73.242188%, 63.476562%)" fill-opacity="1" d="M 1801.5 688.679688 C 1801.5 875.078125 1663.511719 1026.179688 1493.289062 1026.179688 C 1411.550781 1026.179688 1333.160156 990.628906 1275.359375 927.328125 C 1217.558594 864.039062 1185.089844 778.191406 1185.089844 688.679688 C 1185.089844 599.171875 1217.558594 513.328125 1275.359375 450.039062 C 1333.160156 386.738281 1411.550781 351.179688 1493.289062 351.179688 C 1663.511719 351.179688 1801.5 502.289062 1801.5 688.679688 "/>
<path fill-rule="nonzero" fill="rgb(28.24707%, 21.556091%, 21.556091%)" fill-opacity="1" d="M 1379.851562 601.621094 C 1352.199219 600.429688 1323.25 610.671875 1301.039062 627.710938 C 1300.410156 628.191406 1299.988281 628.910156 1299.890625 629.699219 C 1299.78125 630.488281 1300 631.289062 1300.480469 631.921875 C 1300.96875 632.550781 1301.679688 632.960938 1302.46875 633.070312 C 1303.261719 633.171875 1304.058594 632.960938 1304.691406 632.46875 C 1338.511719 606.539062 1388.671875 597.46875 1422.988281 621.988281 C 1423.640625 622.449219 1424.449219 622.628906 1425.230469 622.5 C 1426.019531 622.371094 1426.71875 621.941406 1427.179688 621.289062 C 1427.640625 620.640625 1427.828125 619.839844 1427.699219 619.050781 C 1427.570312 618.269531 1427.128906 617.558594 1426.480469 617.101562 C 1412.558594 607.160156 1396.441406 602.339844 1379.851562 601.621094 "/>
<path fill-rule="nonzero" fill="rgb(28.24707%, 21.556091%, 21.556091%)" fill-opacity="1" d="M 1405.988281 715.769531 C 1405.988281 745.621094 1391.039062 769.808594 1372.589844 769.808594 C 1354.148438 769.808594 1339.191406 745.621094 1339.191406 715.769531 C 1339.191406 685.929688 1354.148438 661.730469 1372.589844 661.730469 C 1391.039062 661.730469 1405.988281 685.929688 1405.988281 715.769531 "/>
<path fill-rule="nonzero" fill="rgb(28.24707%, 21.556091%, 21.556091%)" fill-opacity="1" d="M 1606.738281 601.621094 C 1590.148438 602.339844 1574.019531 607.160156 1560.101562 617.101562 C 1559.449219 617.558594 1559.019531 618.269531 1558.890625 619.050781 C 1558.761719 619.839844 1558.941406 620.640625 1559.398438 621.289062 C 1559.871094 621.941406 1560.570312 622.371094 1561.351562 622.5 C 1562.140625 622.628906 1562.941406 622.449219 1563.589844 621.988281 C 1597.910156 597.46875 1648.078125 606.539062 1681.898438 632.46875 C 1682.53125 632.960938 1683.328125 633.171875 1684.121094 633.070312 C 1684.910156 632.960938 1685.621094 632.550781 1686.109375 631.921875 C 1686.589844 631.289062 1686.800781 630.488281 1686.699219 629.699219 C 1686.589844 628.910156 1686.179688 628.191406 1685.550781 627.710938 C 1663.328125 610.671875 1634.378906 600.429688 1606.738281 601.621094 "/>
<path fill-rule="nonzero" fill="rgb(28.24707%, 21.556091%, 21.556091%)" fill-opacity="1" d="M 1580.601562 715.769531 C 1580.601562 730.101562 1584.121094 743.851562 1590.378906 753.980469 C 1596.640625 764.121094 1605.140625 769.808594 1614 769.808594 C 1632.441406 769.808594 1647.398438 745.621094 1647.398438 715.769531 C 1647.398438 685.929688 1632.441406 661.730469 1614 661.730469 C 1605.140625 661.730469 1596.640625 667.421875 1590.378906 677.558594 C 1584.121094 687.691406 1580.601562 701.441406 1580.601562 715.769531 "/>
<path fill-rule="nonzero" fill="rgb(19.993591%, 19.993591%, 19.993591%)" fill-opacity="1" d="M 1493.289062 351.179688 C 1411.550781 351.179688 1333.160156 386.738281 1275.359375 450.039062 C 1217.558594 513.328125 1185.089844 599.171875 1185.089844 688.679688 C 1185.148438 707.730469 1186.679688 726.738281 1189.660156 745.511719 C 1251.898438 704.160156 1247.429688 565.210938 1322.511719 556.871094 C 1375.609375 547.859375 1678.128906 523.46875 1693.710938 544.25 C 1713.121094 570.128906 1714.769531 594.78125 1728.421875 622.070312 C 1741.21875 647.679688 1762.769531 657.308594 1777.839844 679.898438 C 1787.550781 694.460938 1794.128906 707.480469 1800.050781 719.570312 C 1800.960938 709.300781 1801.449219 699 1801.5 688.679688 C 1801.5 502.289062 1663.511719 351.179688 1493.289062 351.179688 "/>
<path fill-rule="nonzero" fill="rgb(33.325195%, 0%, 0%)" fill-opacity="1" d="M 1630.429688 864.53125 C 1630.429688 963.980469 1356.148438 961.160156 1356.148438 864.53125 L 1630.429688 864.53125 "/>
<path fill-rule="nonzero" fill="rgb(90.234375%, 90.234375%, 90.234375%)" fill-opacity="1" d="M 1356.148438 864.53125 C 1356.148438 871.679688 1357.660156 878.308594 1360.441406 884.421875 L 1626.371094 884.421875 C 1629.011719 878.320312 1630.429688 871.691406 1630.429688 864.53125 L 1356.148438 864.53125 "/>
<path fill-rule="nonzero" fill="rgb(71.289062%, 0%, 0%)" fill-opacity="1" d="M 1493.289062 910 C 1463.128906 910 1438.671875 919.988281 1438.609375 932.328125 C 1473.199219 939.761719 1513.351562 940 1547.941406 932.871094 C 1547.960938 932.699219 1547.980469 932.539062 1547.980469 932.371094 C 1547.988281 926.441406 1542.21875 920.75 1531.96875 916.550781 C 1521.710938 912.359375 1507.800781 910 1493.289062 910 "/>
<path fill-rule="nonzero" fill="rgb(33.325195%, 79.296875%, 70.117188%)" fill-opacity="1" d="M 899.902344 1745.117188 L 787.210938 1861.128906 L 2176.011719 1861.128906 L 2063.320312 1745.117188 L 899.902344 1745.117188 "/>
<path fill-rule="nonzero" fill="rgb(33.325195%, 79.296875%, 70.117188%)" fill-opacity="1" d="M 735.832031 1445.78125 C 732.519531 1445.78125 729.832031 1448.464844 729.832031 1451.777344 C 729.832031 1513.476562 736.242188 1594.914062 762.113281 1662.28125 C 775.046875 1695.964844 792.890625 1726.203125 817.554688 1748.449219 C 842.222656 1770.699219 873.8125 1784.757812 912.988281 1785.914062 C 916.296875 1786.011719 919.0625 1783.410156 919.160156 1780.097656 C 919.257812 1776.785156 916.652344 1774.023438 913.339844 1773.925781 C 876.808594 1772.84375 848.371094 1760.085938 825.59375 1739.535156 C 802.816406 1718.988281 785.789062 1690.453125 773.320312 1657.980469 C 748.378906 1593.03125 741.835938 1512.628906 741.835938 1451.777344 C 741.832031 1448.464844 739.144531 1445.78125 735.832031 1445.78125 "/>
<path fill-rule="nonzero" fill="rgb(41.184998%, 87.109375%, 82.8125%)" fill-opacity="1" d="M 797.980469 1336.597656 C 797.980469 1400.210938 770.15625 1451.777344 735.832031 1451.777344 C 701.507812 1451.777344 673.683594 1400.210938 673.683594 1336.597656 C 673.683594 1306.050781 680.234375 1276.753906 691.886719 1255.152344 C 703.542969 1233.550781 719.351562 1221.421875 735.832031 1221.421875 C 752.316406 1221.421875 768.121094 1233.550781 779.777344 1255.152344 C 791.433594 1276.753906 797.980469 1306.050781 797.980469 1336.597656 "/>
<path fill-rule="nonzero" fill="rgb(41.184998%, 87.109375%, 82.8125%)" fill-opacity="1" d="M 797.980469 1566.960938 C 797.980469 1630.570312 770.15625 1682.140625 735.832031 1682.140625 C 701.507812 1682.140625 673.683594 1630.570312 673.683594 1566.960938 C 673.683594 1536.410156 680.234375 1507.113281 691.886719 1485.515625 C 703.542969 1463.914062 719.351562 1451.777344 735.832031 1451.777344 C 752.316406 1451.777344 768.121094 1463.914062 779.777344 1485.515625 C 791.433594 1507.113281 797.980469 1536.410156 797.980469 1566.960938 "/>
<path fill-rule="nonzero" fill="rgb(41.184998%, 87.109375%, 82.8125%)" fill-opacity="1" d="M 851.015625 1513.925781 C 787.402344 1513.925781 735.832031 1486.101562 735.832031 1451.777344 C 735.832031 1417.453125 787.402344 1389.628906 851.015625 1389.628906 C 881.5625 1389.628906 910.859375 1396.179688 932.460938 1407.832031 C 954.058594 1419.488281 966.195312 1435.296875 966.195312 1451.777344 C 966.195312 1468.261719 954.058594 1484.070312 932.460938 1495.722656 C 910.859375 1507.378906 881.5625 1513.925781 851.015625 1513.925781 "/>
<path fill-rule="nonzero" fill="rgb(41.184998%, 87.109375%, 82.8125%)" fill-opacity="1" d="M 620.652344 1513.925781 C 557.039062 1513.925781 505.472656 1486.101562 505.472656 1451.777344 C 505.472656 1417.453125 557.039062 1389.628906 620.652344 1389.628906 C 651.199219 1389.628906 680.496094 1396.179688 702.097656 1407.832031 C 723.699219 1419.488281 735.832031 1435.296875 735.832031 1451.777344 C 735.832031 1468.261719 723.699219 1484.070312 702.097656 1495.722656 C 680.496094 1507.378906 651.199219 1513.925781 620.652344 1513.925781 "/>
<path fill-rule="nonzero" fill="rgb(33.325195%, 79.296875%, 70.117188%)" fill-opacity="1" d="M 2137.75 1428.082031 C 2151.460938 1441.789062 2167.539062 1451.996094 2182.46875 1456.460938 C 2197.390625 1460.921875 2209.929688 1459.273438 2217.320312 1451.878906 C 2232.71875 1436.476562 2222.070312 1400.851562 2193.53125 1372.308594 C 2179.820312 1358.601562 2163.730469 1348.394531 2148.808594 1343.929688 C 2133.890625 1339.46875 2121.351562 1341.113281 2113.949219 1348.511719 C 2106.558594 1355.90625 2104.910156 1368.445312 2109.371094 1383.367188 C 2113.839844 1398.289062 2124.039062 1414.375 2137.75 1428.082031 "/>
<path fill-rule="nonzero" fill="rgb(33.325195%, 79.296875%, 70.117188%)" fill-opacity="1" d="M 2311.761719 1428.082031 C 2298.050781 1441.789062 2281.96875 1451.996094 2267.050781 1456.460938 C 2252.121094 1460.921875 2239.589844 1459.273438 2232.191406 1451.878906 C 2216.789062 1436.476562 2227.441406 1400.851562 2255.988281 1372.308594 C 2269.691406 1358.601562 2285.78125 1348.394531 2300.699219 1343.929688 C 2315.621094 1339.46875 2328.160156 1341.113281 2335.558594 1348.511719 C 2342.949219 1355.90625 2344.601562 1368.445312 2340.140625 1383.367188 C 2335.679688 1398.289062 2325.46875 1414.375 2311.761719 1428.082031 "/>
<path fill-rule="nonzero" fill="rgb(33.325195%, 79.296875%, 70.117188%)" fill-opacity="1" d="M 2137.75 1485.832031 C 2151.460938 1472.125 2167.539062 1461.914062 2182.46875 1457.453125 C 2197.390625 1452.992188 2209.929688 1454.640625 2217.320312 1462.035156 C 2232.71875 1477.4375 2222.070312 1513.0625 2193.53125 1541.605469 C 2179.820312 1555.3125 2163.730469 1565.519531 2148.808594 1569.984375 C 2133.890625 1574.445312 2121.351562 1572.800781 2113.949219 1565.402344 C 2106.558594 1558.007812 2104.910156 1545.46875 2109.371094 1530.546875 C 2113.839844 1515.621094 2124.039062 1499.539062 2137.75 1485.832031 "/>
<path fill-rule="nonzero" fill="rgb(33.325195%, 79.296875%, 70.117188%)" fill-opacity="1" d="M 2311.761719 1485.832031 C 2298.050781 1472.125 2281.96875 1461.914062 2267.050781 1457.453125 C 2252.121094 1452.992188 2239.589844 1454.640625 2232.191406 1462.035156 C 2216.789062 1477.4375 2227.441406 1513.0625 2255.988281 1541.605469 C 2269.691406 1555.3125 2285.78125 1565.519531 2300.699219 1569.984375 C 2315.621094 1574.445312 2328.160156 1572.800781 2335.558594 1565.402344 C 2342.949219 1558.007812 2344.601562 1545.46875 2340.140625 1530.546875 C 2335.679688 1515.621094 2325.46875 1499.539062 2311.761719 1485.832031 "/>
<path fill-rule="nonzero" fill="rgb(33.325195%, 79.296875%, 70.117188%)" fill-opacity="1" d="M 2219.429688 1445.78125 C 2222.738281 1445.78125 2225.429688 1448.464844 2225.429688 1451.777344 C 2225.429688 1513.476562 2219.019531 1594.914062 2193.148438 1662.28125 C 2180.210938 1695.964844 2162.371094 1726.203125 2137.699219 1748.449219 C 2113.039062 1770.699219 2081.449219 1784.757812 2042.269531 1785.914062 C 2038.960938 1786.011719 2036.199219 1783.410156 2036.101562 1780.097656 C 2036 1776.785156 2038.609375 1774.023438 2041.921875 1773.925781 C 2078.449219 1772.84375 2106.890625 1760.085938 2129.671875 1739.535156 C 2152.441406 1718.988281 2169.46875 1690.453125 2181.941406 1657.980469 C 2206.878906 1593.03125 2213.429688 1512.628906 2213.429688 1451.777344 C 2213.429688 1448.464844 2216.109375 1445.78125 2219.429688 1445.78125 "/>
<path fill-rule="nonzero" fill="rgb(41.184998%, 87.109375%, 82.8125%)" fill-opacity="1" d="M 2157.28125 1336.597656 C 2157.28125 1400.210938 2185.101562 1451.777344 2219.429688 1451.777344 C 2253.75 1451.777344 2281.570312 1400.210938 2281.570312 1336.597656 C 2281.570312 1306.050781 2275.03125 1276.753906 2263.371094 1255.152344 C 2251.71875 1233.550781 2235.910156 1221.421875 2219.429688 1221.421875 C 2202.941406 1221.421875 2187.140625 1233.550781 2175.480469 1255.152344 C 2163.828125 1276.753906 2157.28125 1306.050781 2157.28125 1336.597656 "/>
<path fill-rule="nonzero" fill="rgb(41.184998%, 87.109375%, 82.8125%)" fill-opacity="1" d="M 2157.28125 1566.960938 C 2157.28125 1630.570312 2185.101562 1682.140625 2219.429688 1682.140625 C 2253.75 1682.140625 2281.570312 1630.570312 2281.570312 1566.960938 C 2281.570312 1536.410156 2275.03125 1507.113281 2263.371094 1485.515625 C 2251.71875 1463.914062 2235.910156 1451.777344 2219.429688 1451.777344 C 2202.941406 1451.777344 2187.140625 1463.914062 2175.480469 1485.515625 C 2163.828125 1507.113281 2157.28125 1536.410156 2157.28125 1566.960938 "/>
<path fill-rule="nonzero" fill="rgb(41.184998%, 87.109375%, 82.8125%)" fill-opacity="1" d="M 2104.25 1513.925781 C 2167.859375 1513.925781 2219.429688 1486.101562 2219.429688 1451.777344 C 2219.429688 1417.453125 2167.859375 1389.628906 2104.25 1389.628906 C 2073.699219 1389.628906 2044.398438 1396.179688 2022.800781 1407.832031 C 2001.199219 1419.488281 1989.058594 1435.296875 1989.058594 1451.777344 C 1989.058594 1468.261719 2001.199219 1484.070312 2022.800781 1495.722656 C 2044.398438 1507.378906 2073.699219 1513.925781 2104.25 1513.925781 "/>
<path fill-rule="nonzero" fill="rgb(41.184998%, 87.109375%, 82.8125%)" fill-opacity="1" d="M 2334.609375 1513.925781 C 2398.21875 1513.925781 2449.789062 1486.101562 2449.789062 1451.777344 C 2449.789062 1417.453125 2398.21875 1389.628906 2334.609375 1389.628906 C 2304.058594 1389.628906 2274.761719 1396.179688 2253.160156 1407.832031 C 2231.558594 1419.488281 2219.429688 1435.296875 2219.429688 1451.777344 C 2219.429688 1468.261719 2231.558594 1484.070312 2253.160156 1495.722656 C 2274.761719 1507.378906 2304.058594 1513.925781 2334.609375 1513.925781 "/>
</svg>
